/* XPM */
static char *result[] = {
/* columns rows colors chars-per-pixel */
"64 64 72 1 ",
"  c #DEA655",
". c #DBA857",
"X c #D7A75D",
"o c #DBA759",
"O c #D7A85E",
"+ c #DBA95C",
"@ c #E0A754",
"# c #D5AA64",
"$ c #DCAC62",
"% c #D3AC6B",
"& c #DCAF68",
"* c #DEB066",
"= c #DEB36D",
"- c #CFAF77",
"; c #CFAF79",
": c #D0AE73",
"> c #CEB07C",
", c #DDB572",
"< c #D0B17B",
"1 c #DEB778",
"2 c #DEBB7C",
"3 c #E0B46C",
"4 c #E0B571",
"5 c #E1BA77",
"6 c #E2BC7C",
"7 c #BFBDBC",
"8 c #CDB284",
"9 c #CCB58C",
"0 c #CAB693",
"q c #C9B897",
"w c #C9B798",
"e c #C7B99E",
"r c #C9B99C",
"t c #E1BE82",
"y c #C7BAA4",
"u c #C8BAA1",
"i c #C5BCAB",
"p c #C2BDB5",
"a c #C0BEBC",
"s c #DFC082",
"d c #E1C183",
"f c #E4C48A",
"g c #E7CA93",
"h c #E8CB94",
"j c #E6CD9D",
"k c #E9CE9B",
"l c #EBD19C",
"z c #E4CDA0",
"x c #EBD4A3",
"c c #E7D5AE",
"v c #ECD4A8",
"b c #EDD9AD",
"n c #EFDDB3",
"m c #EFDFBA",
"M c #F0DDB4",
"N c #F1DFBA",
"B c #F2E1BC",
"V c #F3E4C2",
"C c #F5EACC",
"Z c #F7EDD2",
"A c #F8EED6",
"S c #F7EFDD",
"D c #F8EFD9",
"F c #F9F2D7",
"G c #F7F1D8",
"H c #F9F3DD",
"J c #FBF6E3",
"K c #FBF8E7",
"L c #FAF7E8",
"P c #FDFAEC",
"I c #FEFDF4",
"U c #FEFEFB",
/* pixels */
"aaaaaaaaaaaaaaaaaaaaaaaaaaaaaaaaaa7aaaaaaaaaaaaaaaaaaaaaaaaaaaaa",
"aaaaaaaa77aaaaaaaaaaaaaaaapaaapapaa7aaaaa7aaaaaaaaaaa77aaaaaaaaa",
"aaaaaaaa7aaaaaaaaaaaaaaapiw098888890uipaaa77aaaa7aaa777aaaaaaaaa",
"aaaaaaaaaaaaaaaaaaaaapy08:#oo @   X#%;8wiaa7aaaa77aa777aaaaaaaaa",
"aaaaaaaaaaaaaaaaaaapu9%#@@ @@@@@@@    o#80ypaaaa7paaaa7aaaaaaaaa",
"aaaaaaaaaaaaaaaaaay9%X@@@@@@@@@@@ @ @    X;wiapa77aaaaaaaaaaaaaa",
"aaaaaaaaaaaaaaaapw:X@@@@@@@@@@@@@@   @@@@ @#8uaaaaa7aaaaaaaaaaaa",
"aaaaaaaaaaaaaa779#o@@@@@@@@@@@@@@@@@@@@@@@ @X:wpa7aaaaaaaaaaaaaa",
"aaaaaaaaaaaaaai8#@@@@@@@@@@@@@@@@@@@@@@@@@@@@o%0paaaa777aaaaaaaa",
"aaaaaaaaaaa7ai;X@@@@@@@@@@@@@@@@@@@@@@@@@@@@@@@#9paaaa77aaaaaaaa",
"aaaaaaaaaaa7i;X@@@@@@@@@@@@@@@@@@@@@@@@@@@@@@@@@X0paaa7aaaaaaaaa",
"aaaaaaaaaaaa8X@@@@@@@@@@@@@@@@@@@@@@@@@@@@@@@@@@oX0p7a77aaaaaaaa",
"aaaa7aaaa7p9# @@@@@@@@@@@@@@@@@@@@@@@@@@@@@@@@@@@@%uaa77aaaaaaaa",
"aaaaa77aa7w#@@@@@@@@@@@@@@@@@@@@@@@ @@@@@@@@@@@@@@o;ya777aaaaaaa",
"aaaaapp7ai: @@@@@@@@ o++@o@@oo@o@ @+ooo@+@@@@@@@@@@X9a77a77777aa",
"aaaaa777p9X@@@@@@@@@6vvvbvvbvvvxvvvvvvvvvk4@@@@@@@@@%yaa7aaaaaaa",
"aaaaaaaay%.@@@@@@@@.lPUPIIIIIIIIIUIUIIIIIH2 @@@@@@@@o8iaaaaaaaaa",
"aaaaaaaa8+..@@@@@@@.lUUUIIPIIPIIPPPIPIPPPF2 @@@@@@@@ #uaaa7aaaaa",
"aaaaaaai%@@@@@@@@@@.lUUAjhhhghhhhhhhhhgghf= @@@@@@@@@o8pa77aaaaa",
"aaaaaap9O@@@@@@@@@@.xUUN$  + @ o  . .   .@@@@@@@@@@@@ #uaa7aaaaa",
"7777p7i-@@@@@@@@@@@.lIUB@@@@@@@ @@@@@@@@@@@@@@@@@@@@@@X0paaaaaaa",
"7777aaz#@@@@@@@@@@@oxUUBO @@ @  @@@ @@@@@@@@@@@@@@@@@@ <iaaaaaaa",
"7777779X@@@@@@@@@@ olUUV*#$O+$O+$O$OO$O+++.@@@@@@@@@@@@%y7aa7aaa",
"777777-X@@@@@@@@@@  xIUJMBnnnnnnnnnnnbBnBnf@@@@@@@@@@@@X0a77paaa",
"7777ai% @@@@@@@@@@@oxUUUUUIUUUUUUUUUIUUUUPx.@@@@@@@@@@@+9paaaaaa",
"77a7ae%@@@@@@@@@@@@ohGJJJJJHJPIUUJJJHJJHJHl@@@@@@@@@@@@@;iaaaaaa",
"aaaa7q#@@@@@@@@@@@@ *sstssddscIUJzstssddt23 @@@@@@@@@@@ :i7aaaaa",
"aaaap9+@@@@@@@@@@@@@        XsLUH1..       @@@@@@@@@@@@@#yaaaaaa",
"aaa7p9.@@@@@@@@@@ @@@@ @  @@ dLUH4@@  @@ @@@@@@@@@@@@@@@#y7aaaaa",
"aaaap8.@@@@@@@@@+3333*====3=*jLUJf*===3*33*33&+@@@@@@@@@#iaa77aa",
"aaaaa8 @@@@@@@@+hCZZZZZAZZZZAJIUISZZAZZZZAAAAV5 @@@@@@@@+w7aaaaa",
"aaaap8 @@@@@@@@+xIUUUUUUUUUUUUUUUUUUUUUUUUUUUJt @@@@@@@@Xuaaaaaa",
"aaaap8.@@@@@@@@.gCZZZZZZZZZZAZZZZZZZZZZZZCZZZB5@@@@@@@@@$eaaaaaa",
"aaaap9+@@@@@@@@ @====343434,,==33,==34&3=33433+@@@@@@@@@#u7aaaaa",
"aaaaa9. @@@@@@@@@@@@@ @@     . +ooo   @@@@@ @ @@@@@@@@@ #yaaaaaa",
"aaaaaq# @@@@@@@@@@@@@@  +=dkxbnMnvxgt&oo @@@@@@@ @@@@@@ :i7aaaaa",
"paaaay#@@@@@@@@@@@@@  *fMCHPIIUUUUIPHVbt$  @@@@@@@@@@@@ ;p777aaa",
"a7aa7i% @@@@@@@@@@@. 1BHUUIPJDCZZFJPUUIFx& @@ @@@@@@@@@o9a7aaaaa",
"a7aaap> @@@@@@@@@@@ 5CIUICbgt1,&,1fkmJIUPn& @ @@@@@@@@@+waaaaaaa",
"a7a7aa9$@@@@@@@@@@@&nUULb,+@ @o    X$tVIULg @@@@@@@@@@ %yaaaaaaa",
"aaaa7ay#@@@@@@@@@@@5FUUB$  @@@@@@@ @  tSUUN$@@@@@@@@@@ ;pa777777",
"aa7aaap- @@@@@@@@@@tKUUx. @@@@@@@@@@@@$CUUC$  @@@@@@@@X0paaa7777",
"aaaaaap9X@@@@@@@@@@5SUUm$.@ @@@@ @ @  1DUUN$@@@@@@@@@ %yaaaaaaaa",
"aaaaaaai% @@@@@@@@@$NUULv,+ @@@@    $6VIULho@@@@@@@@@o8paaaaaaaa",
"aaaaaaap9X @@@@@@@@otZUUPCvf644335tgnDIUIM& @@@@@@@@ #ea77777777",
"aaaaaaaay: @@@@@@@@@.dBLUUILJFAZFHJPUUUHb= @@@@@@@@@o8pa7aaaaaaa",
"aaaaaaaap9$@@@@@@@@@@.3hVFLPUUUIUUIPJFMf$ @@@@@@@@@ %uaaaaaaaaaa",
"aaaaaaaa7i>.@@@@@@@@@@ .&5gxnNVBBNblf3+.@@@  @@@@@@#0paa7aaaa777",
"aaaaaaaaaae% @@@@@@@@@@@@ oX$*$$$$$. @@@@@ @@@@@@@o;ia77aaaaa777",
"aaaaaaaaaap9# @@@@@@@@@@@@@@@@@@@@@@@@@@@@@@@@@@@ :ua7aaaaaaaaaa",
"aaaaaaaaaaap9O@@@@@@@@@@@@@@@@@@@@@@@@@@@@@@@  @ %wpa7aaaaaaaaaa",
"aaaaaaaaaaapi8.@@@@@@@@@@@@@@@@@@@@@@@@@@@@@@@  #0pa77aaaaaaaaaa",
"aaaaaaaaaaaa7i>O @@@@@@@@@@@@@@@@@@@@@@@@@@@@@ #077aaaaaaaaaaaaa",
"aaaaaaaaaaaa7ai9# @@@@@@@@@@@@@@@@@@@@@@@@@@ .%qi7aaaaaaaaaaaaaa",
"a77aaaaaaaaaaaai0#X@@ @@@@@@@@@@@@@@@@@@@@  X:ep777aaaaaaaaaaaaa",
"a77aaaaaaaaaaaaapr:O    @@@@@@@@@@@@@@@@  .#9y777777aaaaaaaaaaaa",
"77aaaaaaaaaaaaaaaap9-X  @@@@@@@@@@@@@@@ X#;wpa77aaaaaaaaaaaaaaaa",
"77aaaaaaaaaaaaaaaaa7i9:#  @  @@ @@@.@ O%8yp7a7aaaaaaaaaaaaaaaaaa",
"7aaaaaaaaaaaaaaaaaaaapiq9:%#O+ ...##%<9e7aaaaaaaaaaaaaaaaaaaaaaa",
"aaaaaaaaaaaaaaaaaaaa777aaiyq9998999rypaaaaaaaaaaaaaaaaaaaaaaaaaa",
"aaaaaaaaaaaaaaaaaaaaaaaa777ppapppppaaaaaaaaaaaaaaaaaaaaaaaaaaaaa",
"aaaaaaaaaaaaaaaaaaaaaaaaaaaaaaaaaaaaaaaaaaaaaaaaaaaaaaaaaaaaaaaa",
"aaaaaaaaaaaaaaaaaaaaaaaaaaaaaaaaaaaaaaaaaaaaaaaaaaaaaaaaaaaaaaaa",
"aaaaaaaaaaaaaaaaaaaaaaaaaaaaaaaaaaaaaaaaaaaaaaaaaa7aaaaaaaa7aaaa"
};
