/* XPM */
static char *result[] = {
/* columns rows colors chars-per-pixel */
"64 64 80 1 ",
"  c #9F5657",
". c #9F5758",
"X c #9F5B5C",
"o c #A55657",
"O c #A25658",
"+ c #A25A5B",
"@ c #9F5F61",
"# c #A15F61",
"$ c #9F6162",
"% c #A46465",
"& c #A86465",
"* c #A16768",
"= c #AB6668",
"- c #A46B6C",
"; c #AA6869",
": c #A66F70",
"> c #AE6F71",
", c #A67273",
"< c #A97777",
"1 c #AB7B7C",
"2 c #B17577",
"3 c #B27778",
"4 c #B2797A",
"5 c #AD7F80",
"6 c #B67E80",
"7 c #AD8484",
"8 c #AF8888",
"9 c #B58283",
"0 c #B98283",
"q c #B28B8C",
"w c #BB888A",
"e c #B3908E",
"r c #B59494",
"t c #B59897",
"y c #B69798",
"u c #B69A9A",
"i c #B99C9B",
"p c #BCA3A3",
"a c #BCA9A7",
"s c #BEACAB",
"d c #BFB0AF",
"f c #BFBEBC",
"g c #C18F90",
"h c #C19697",
"j c #C39799",
"k c #C79C9D",
"l c #C89C9D",
"z c #C69FA1",
"x c #C6A1A3",
"c c #CAA4A5",
"v c #CBA6A8",
"b c #C0AFAE",
"n c #CCABAC",
"m c #C1B1AF",
"M c #C1B4B3",
"N c #C2B9B7",
"B c #C0BEBC",
"V c #D3B3B4",
"C c #D0B7B8",
"Z c #D5BBBC",
"A c #D8C3C3",
"S c #DCC6C8",
"D c #DDCDCD",
"F c #E3CCCD",
"G c #E4CFD0",
"H c #E4D0D1",
"J c #EAD6D7",
"K c #EBD7D8",
"L c #E6DADA",
"P c #ECDCDC",
"I c #EEDFE0",
"U c #EEE2E2",
"Y c #F1E5E5",
"T c #F5EDED",
"R c #F6EFF0",
"E c #F7F1F2",
"W c #FAF6F6",
"Q c #FBF8F7",
"! c #FBF7F8",
"~ c #FDFCFC",
/* pixels */
"BBBBBBBBBBBBBBBBBBBBBBBBBBBBBBBBBBfffffBBBBBBBBBBBBBBBfBBBBfBBBB",
"BBBBBBBBBBBBBBBBBBBBBBBBBBBBBBBBBBfffffBBBBBBBBBBBBBBBffBBfffBBB",
"BBBBBBBBBBBBBBBBBBBfBBBBNmbiurrrtixmNBBBBBBBBBBBBBBBBBBBBBBBBBBB",
"BfBfBBBBBBBBBBBBfffBBNmt7,*%++o++#*:1rpMfBffBBBBBBBBBBBBBBfBBBBB",
"BfBBBBBBBBBBBBBBfBBNx8;&oooooooooooooo*1tmBBBBBBBBBBBBBBfBBBBBBB",
"BfBBBBBBBBBBBBBBBBp7*oooooooooooooooooooX<uNBBBBBBBBBBBBBBBBBBBB",
"BBfBBBBBBBBBBfffme*oOooooooooooooooooooooo@5bNfBBBBBBBBBBBBBBBBB",
"BBBBBBBBBBBBBffd1Xoooooooooooooooooooooooooo-tNfBBBBBBBBBfBBBBBB",
"BBBBBBBBBBBBffp:ooooooooooooooooooooooooooooo%eMBBBBBBBBBBffBBBf",
"BBBBBBBBBBfBfu*.oooooooooooooooooooooooooooooo+8fBBBBBBBfBfBBBBf",
"BfBBBBBBBBBBi#OOooooooooooooooooooooooooooooooo+7NBBBBBBBBBBBBBB",
"BffBBBBBBBBa-OOOooooooooooooooooooooooooooooooooXqfBBBBBBBBBBBBB",
"BfBBBBBBBBb,OoooooooooooooooooooooooooooooooooooO$tBfffBBBfBBBBB",
"BfBBBBBfBM5OOooooooooooooooooooooooooo ooooooooooo-pffBBBBfBBBBB",
"BfBBBBBBBy#Oooooooo#6wgooooooooooooooo3gw>ooooooooo1fffBBBfBBBBB",
"BBffBBBBb:ooooooooo2KRY4ooooooooooooo&VRTloooooooo++uBfBBBBBBBBB",
"BBBBBBBNw+ooooooooo3Y~T5 oooooooooo+o+A~~noooooooooo:sBBBBfBffBB",
"BBBBBfBs>oooooooooo3Y~T9XX++++#++++++*Z~~V+oooooooooXrBBBBBBffBB",
"BfBBfBBq+oooooooooo4Y~WDZZZZZZZZZZZZZZU~~n+oooooooooo,MfBBBBffBB",
"BBBBBBm,ooooooooooo4Y~~~~~~~~~~~~~~~~~~~~noooooooooo++uBBBBBfBBB",
"BBBBBBi+ooooooooooo4Y~~WRTRRRRTRRTTTTT!~~n+oooooooooo+5NBffBBBBB",
"BBBBBN7+ooooooooooo4T~Rx6669969600096qD~Qnoooooooooooo;bBfBBBBBB",
"BfBBBM,oooooooooooo4Y~Y5 oooo ooooooo@Z~~n+ooooooooooo+iBfBBBBBf",
"BBBBBp$oooooooooooo4Y~T7 O O.oOOOXOOO%Z~~noooooooooooo+8BfBBBBBB",
"BBBfBt+oooooooooooo2Y~WCzxxzxxzxkkxkxxL~~nOoooooooooooo<NBBBBBBB",
"BBBBf8ooooooooooooo3Y~~~WWWWWWWWWWWQWW~~~n+oooooooooooo-bBBBBBBf",
"BBfBN1Ooooooooooooo2U~!~~~!~~~~~~~!~QQ~~!n+oooooooooooo%afNfBBBB",
"BBBBd,Ooooooooooooo=kvvvcvvvvccvccncvvvvc4ooooooooooooo+pffBBBBB",
"BBffm: oooooooooooooO+OOo+O+O+OO+.O+++Xoooooooooooooooo+uBfBBBBB",
"fBfBd-ooooooooooooooooOO o ooo .ooOOooo oo oooooooooooo+uBBBfBBB",
"BBBBd-ooooooooo=yxxzzxxzxxxxzzzzzxxxxxxxxxxxc4oooooooooXtBBBBBBB",
"BBBBd*ooooooooo4I~~~~~~~~~~~!~~~!~~!~~!~~~~~QV+oooooooo+uBBBBBBB",
"Bfffd-ooooooooo4I~!!!~!!!!!W!~~~~!!!!!~Q~QQ~Wvooooooooo+iBBfBBBB",
"BfffM,ooooooooo=jxxxcxxzccxxnT~~Sxxxxcxcxxxcv4ooooooooo+pBfBBBBB",
"BBffB1ooooooooooOOooooooOO o-P~!i o o ooo ooooooooooooo%aBBBBBBB",
"BBffB7oooooooooooooooooooooo;J~WhooooooooooooooooooOoOO;bBBBBBBf",
"BBffBr+oooooooooooo=44444344qI~~n44434444=oooooooooooo <fBBBBBBf",
"BBBBBp%oooooooooooojYYYYUYYUY~~~RYYYUUYUYlooooooooooooX9NfBBBBBB",
"BBBBBM2oooooooooooOc~~~~~~~~~~~~~~~~~~~~~noooooooooooo#iBBBBBBBB",
"BBBBBN9oooooooooooOgGHHHHHHHHHGFHHHHHHT~~V+ooooooooooo;bBBBBBBBB",
"BBBBBBi#ooooooooooo+;&&&======#=;&%%%-A~~n+ooooooooooo5NBBBBBBBB",
"BBBBBBm,oooooooooooooooOooooooooooooo+Z~~n+oooooooooo+uBBBfBBBBB",
"BBBBBBBqOoooooooooooooooooooooooooooo#A~~nooooooooooo:mBBBBBBBBB",
"BBBBBBBa*oooooooooooooooooooooooooooo+Z~~n+ooooooooo.rBBBBBBfBBB",
"ABBBBBBN8Oooooooooooooooooooooooooooo#Z~!n+ooooooooo:sBBBBBfBBBB",
"fBBBBBBBb-ooooooooooooooooooooooooooo#CWEvOoooooooo+tNBBBBBBBBBB",
"ffBBBBBBBr#ooooooooooooooooooooooooooo0kl4oooooooo+<NBfBBBBBBBBB",
"ffBBBBBBBN6+ooooooooooooooooooooooooooooo ooooooo.;aBffBBBBBBBBf",
"fffffBBBBBs: ooooooooooooooooooooooooOooooooooooo#tNBBBBBBBBBBBB",
"ffffBBBBBBfp*oooooooooooooooooooooooooooooooooooX8NBBBBBBBBBBBBB",
"BfffBBffffBfu*ooooooooooooooo&oooo+ooooooooooooX7MBBBBBBBBBBBBBB",
"BfffBBfBBBBBBu* oooooooooooooooooooooooooooooo.7mBBBBBBBBBBBBBBB",
"BBBBBBBBBBBBBNi-.ooooooooooooooooooooOooooooO$8MBBAfffBBBBBBBBBB",
"BBBBBfBBBBBBBBBp<+oooooooooooooooooooooooooo*rNBBBBBffBfBBBBBBBB",
"BfBBBBBBBBBBBBBBmq*.Oooooooooooooooooooooo#1affBBBBBffffBBBBBBBB",
"BBBBBBBBBBBBBBBBBNp1%OOooooooooooooooooo+,tMBBBBBBBBffffBBBBBBBB",
"BBBBBBBBBBBBBBBBBBBfi5*+ooooooooooooo.%<ufffffBBBBBBBBBBBBBBBBBB",
"BBBBBBBBBBBBBBBBBBBBBNsr1:*+XXO+++$;<qpdBBffffBBBBBBBBBBBBBBBBBB",
"BBBBBBBBBBBBBBBBBBBBBfBNfdpirqqerhpbMBfffBffffBBBBBBBBBBBBBBBBBf",
"BBBBBBBBBBBBBBBBBBBBBfBffBBBBBBBBBBBBfffffffffBBffBBBBBBBBBBBBBB",
"BBBBBBBBBBBBBBBBBBBBfBfBBBffffffBBBBBBBfBfffBBBBffBBBBBBBBBBBBBB",
"BBBBBBBBBBfBBBBBffBBBBBBBBffBBfBBBBBBfBBBfffBBBfBfBBBBBBBBBBBBBB",
"BBBBBBBfBBBBBBBBffBBBBBBBBffBBBBBBfBBfBBBBBBBBfffBffBBBBBBBBBBBB",
"BBBBBfBfBBBBBfBBfffBfBBfBBffBBBBBBfBBfBBBBBBfBBfBBffBBBBBBBBBBBB"
};
