/* XPM */
static char *result[] = {
/* columns rows colors chars-per-pixel */
"64 64 80 1 ",
"  c #53678C",
". c #55698F",
"X c #5A6D8D",
"o c #5E708F",
"O c #556990",
"+ c #5C6F91",
"@ c #5E7192",
"# c #61728E",
"$ c #637492",
"% c #687792",
"& c #6C7B95",
"* c #6A7B99",
"= c #707E97",
"- c #717F98",
"; c #728097",
": c #75829A",
"> c #7A869C",
", c #7D899D",
"< c #7485A2",
"1 c #7C8BA4",
"2 c #7D8DA8",
"3 c #818C9F",
"4 c #828EA1",
"5 c #818FA9",
"6 c #8691A3",
"7 c #8B95A5",
"8 c #8392AB",
"9 c #8C97AB",
"0 c #9098A7",
"q c #939BAA",
"w c #919DB5",
"e c #97A0AE",
"r c #9BA2AE",
"t c #92A0B7",
"y c #9EA5B1",
"u c #96A3B9",
"i c #99A5BA",
"p c #9EAABD",
"a c #A1A7B1",
"s c #A5AAB4",
"d c #AAAEB6",
"f c #A3AEBF",
"g c #AAAFB8",
"h c #ACB0B7",
"j c #AEB1B9",
"k c #B2B5BB",
"l c #B6B8BD",
"z c #BEBDBD",
"x c #C0BEBC",
"c c #9EABC1",
"v c #A3AFC2",
"b c #A7B1C4",
"n c #AFB9C5",
"m c #ABB7C8",
"M c #ADB9CA",
"N c #B2BBC6",
"B c #BFBFC0",
"V c #B1BCCB",
"C c #C1BFC0",
"Z c #B9C1CD",
"A c #BAC3D2",
"S c #C0C0C0",
"D c #C1C9D5",
"F c #C7D0DC",
"G c #C9D1DC",
"H c #D1D7DF",
"J c #CED6E0",
"K c #D0D7E0",
"L c #D5DCE3",
"P c #DAE0E7",
"I c #DBE2E9",
"U c #E0E6ED",
"Y c #E4E8EC",
"T c #E6EBF2",
"R c #E9EEF3",
"E c #EDF1F5",
"W c #F2F5F7",
"Q c #F4F6F9",
"! c #F6F9FB",
"~ c #FDFEFE",
/* pixels */
"xxxxxxxxxxxxxxxxzxxzxxxxxxxxxxxxxSxxxxxxxxxxxxxxxxxxxxxxxxxxxxxx",
"xxxxxxxxxxxxxxxxxxxxxxxzzxzzlkjggggklzBxxxxxxxxxxxxxzzxxxxxxxxxx",
"xxxxxxxxxxxxxxxxxxxzxxxzlhr6>&$$#$$&-30slzxxxxxxzxzxxzxxxxxxxxxx",
"xxxxzxzxxxxxxxxxxzzzxzkr,$o   ....  . X$;0hxxxxxzxzxxxxxxxxxxxxz",
"xxxxxxzzxxxxxxxxxxxzk9;o ..........O XO. .%6dzxxxxxxxxxxxxxxxxxx",
"zxxxxxxxxxxxxxxxxxzr;X...X....O.....X ..... %0lxxxxxxxxxxxxxxxxx",
"xxxxxxxxxxxxxxxxxk6o..O...OOOO.... ....O.... X:szzzxxxxxxxxxxxxx",
"xxxxxzxxxxxxxxxzs: ............O.O..OO..X...  .%ezxxxxxxxxxxxxxx",
"xxxxzzxxxxxxxxzr%....X.OO...O...........OO..... o7lzxxxxxxxxxxxx",
"xxxxzzxxxxxxxzr%.......O..OO.........OO....O.... o7zxxxxxxxxxxxx",
"xxxxzxxxxxxxxa%XO........O...O.............O.... Xo7zxxxxxxxxxxx",
"zxxxxxxxxzzxd&  ..OO..............O.O...........   #ezxxxxxxxxxx",
"zxxxzxxzxxxk>  X.........O......O..O...........OX.. %axxxxxxxxxx",
"xxxxxxxxxxz7X   ..O..... OO.....O..O.O..$$$@........ ;lxxxxxxxxx",
"xxxxzxxxxxa%..  ...X  .................@bGGiX....... X6xxxxxxxxx",
"xxzxxxxxxk> ...X...<uu8+ ..OO..O.OO.O..oF~~MX.......XX%axxxxxxxx",
"xxxxzxxxBeo...O...XfEQF$OO...O..O..... #G~~MX..........1lzxxxxxx",
"xxzxxzxxl: ....... b~~H$ ..O..O........@G~~VX..........;azxxxxxx",
"xxzxxxxxro....OO...b~~J$..O.OO...O.....$G~~M+O..O.......2lxxxxxx",
"xxxxxxxk, ........Xb~~K$.......O...... $G~~M+...........;dxxxxxx",
"xxxxxxxao......OX .b!~K$...O.OO.OO.... @F~~VX ..........XeSxxxxx",
"xxxxxxx0X...OO... .b~~J$.............. $G~~Z;&%*+.....O. ,lxxxxx",
"xxxxxxz> ..O..O....b~~J$..O.O..........$G~~RPPPF<....... %hxxxxx",
"xxxxxxh%.....O....Xb!~J*....O..........$F~~~~~~E2....... Xyxxxxx",
"xxxxxxao ..X..OO.. v~~G$...............$G~~QRRRP1 .....O X7xxxxx",
"xxxxxz0X....O.....Xb~~G%............. .@G~~D621<@..OO.OO  ,lxxxx",
"xxxxxz6 ....O.O... b~~G# XXXo#$$***<21@@G~~M.    .OO..OO. ;lxxxx",
"xxxxxz>X......OO..Xb~~YnkNNVZADFGLPUTG*$G~~VX.....O..O.O. @jSSxx",
"xxxxxz; ......OO..Xb!~~~~~~~~~~~~~~~~I*$F~~V+.OO..OO..OOX odSxSx",
"xxxxxk; XO....OO.  b!~~~!!!!!QQWERTILV$@F~~V+.....OO....  osxzxx",
"xxxxxk= O......O...5MMMmmbbfpyiw921:*@X@F~QZO.O...OO....X oyxxxx",
"xxxxxk= ............XXX X  . .X..O. ...$J!!Z+...O.OO... X oyxxzx",
"xxxxxk& .OO....O.......O........OO.O.. @MPPc+...OO..O.X...+axxxx",
"xxxxxl: ....OO..OO....OO...X.......O.  X**;$.......O..OO. $sxxxx",
"xxxxxl> ......O....O..*tiiiiiiiiiiiiiiiiiii2.O.O...OOOO.  $gxzxx",
"xxxxxz3 ..O..O...O....8R!Q!!QQ!!Q!!!~QQQQQQZXOO.OO..O.....%jxxzx",
"xxxxxS7 OO..XOOO..O...2E~~~~~~~~~~~~~~~~~~~ZXOX...O..O....;lxxxx",
"xxxxxxrX...O.O..O.O...8E~!KDDADDDADDADDDR~~A+.OO.O....O...4zxxxx",
"xxxxxxs$.O.O..O..O..O.8E~R9@@@@+$@@@++$%G~~AX.....OOOO... qzxxxx",
"xxxxxxk& O..O......OO.8E~E6  OO..OO....$F~~AX.O.O......O.#sSxxxx",
"xxxxxxx3 .X....OO..O..8E~E8 .......O.. $F~~AX.O....O.... &kxxxxx",
"xxxxxxxro. ....OO..O. 8E~E8 ..O . .....$F~~AX..OOO......X3zxxxxx",
"xxxxxxxk&...........O.8E~E6 ....... ...$G~~Z+.....O.O...Xyxxxxxx",
"xxxxxxxz6....OO..OO. .8E~R8 . .   .. ..$F~~ZX.OO.O..O.X :kxxxxxx",
"xxxxxxxxs$..O.O..OO.O 8E~QZpppppppfpppffI~~Z+.....O....Xqzxxxxxx",
"xxxxxxxxz4 .OO....... 8E~~!!!!!!!!!!!!!!~~~AXOOOO.O....&kxxxxxxx",
"xxxxxxxxxs#..X.OO....O8E~~~~~~!~~~~~~~~~~~~A+.O..O....Xqzzxxxxxx",
"xxxxxxxxzz7 OOO.O.O.OO<VAAAAAAAAAAAAAAAAAAAuX.O....O. ;lxzzxxxxx",
"xxzxxxxxzxh= X  O.....O@@+++@@+@@X++@++@X+++....OO..X#rzxxxxxxxx",
"xxxxxxxxxzxr#XX ..O..........O......OOO....O..O.....X6zxxxxxxxxx",
"xxxxxxxxxzxl0X  ..............O....O.OO..O.......X. >kxxxxxxxxxx",
"xxxxxxxxxxxxl3X .....OO.O...O......O.............. ;dZxxxxxxxxxx",
"xxxxxxxxxxxxzk>   ..........O..O..O...OOOO....... %sBxxxxxxxxxxx",
"xxxxxxxxxzzxzBh,X .......OO.O..OO.O.O......O.... &axzzxxxxxxxxxx",
"xxxzxxxxxxxxxxxk,o X.....OO.........O...O..O... ;sBxxxxxxxxxzxxx",
"xxxxxxxxxxxxzxxxl7o.....O..O.OO.......O...OO..X,hxxxxxxxxxxxxxxx",
"xxxxxxxxxxxxzxxxxzr;.. .........O.. X......  &0lxxxxxxxxxxxxxxCz",
"xxxxxxxxxxxxzxxxxxxk0%X ........O......O.  #3szxzxzzCxxCxxxxxxxx",
"xxxxxxxxxxxxxxxxxxxxxh6;o  .............X%4azxxxxxCxzxxxxxxxxxxx",
"xxxxxxxxxxxxxxxxxxxxxxzje,;#X....    o%:0dlxxxxxxxxxxxxxxxxxxxxx",
"xzxxxxxxxxxxxxxxxxxxxxxxBzjye6,,,,,6qyhlzxxxxxxxxxxxxxCxCxxxxxxx",
"xxzxxxxxxxxxxxxxxxxxBxxxxxxSBzzzllzBBBxxxzxxxxxxxxxxxxzxxxxxCzxx",
"xzxxxxxxxxxxxxxxxxxxxzBxxxxxxxxxxxxxxxxxxzxxxxxxxxxxxxzCxxxxxxxC",
"xxxxxxxxxxxxxxxxxxxxxxxxxxxxxxxxxxxxxxxxxxxxxxxxxxxxxxxxxxxzxxxz"
};
