/* XPM */
static char *result[] = {
/* columns rows colors chars-per-pixel */
"64 64 85 1 ",
"  c #4F7D53",
". c #517E54",
"X c #547F59",
"o c #518155",
"O c #55815A",
"+ c #59835E",
"@ c #5D8562",
"# c #5F8A64",
"$ c #618766",
"% c #618A66",
"& c #658B6A",
"* c #698D6E",
"= c #66916C",
"- c #69916F",
"; c #6C8E71",
": c #6E9273",
"> c #709576",
", c #719876",
"< c #75957A",
"1 c #79977E",
"2 c #779D7D",
"3 c #7E9B82",
"4 c #7DA284",
"5 c #7FA388",
"6 c #829E86",
"7 c #849F88",
"8 c #80A387",
"9 c #82A289",
"0 c #89A48E",
"q c #84A88B",
"w c #88AA8E",
"e c #8FA692",
"r c #8BAC92",
"t c #90A794",
"y c #92A995",
"u c #95AB99",
"i c #99AD9C",
"p c #8DB094",
"a c #90B095",
"s c #94B59C",
"d c #9CB09F",
"f c #9DB1A1",
"g c #9EBBA5",
"h c #A3B4A5",
"j c #A0BCA6",
"k c #A7B6A9",
"l c #A9B6AA",
"z c #A3BEA9",
"x c #ACB9AD",
"c c #B0BBAF",
"v c #AFBBB0",
"b c #B3BCB3",
"n c #B9BFB7",
"m c #BFBEBC",
"M c #C0BEBD",
"N c #A6C1AD",
"B c #A9C4AF",
"V c #ACC7B3",
"C c #ADC9B5",
"Z c #B1C8B6",
"A c #BEC0BB",
"S c #B5CDBB",
"D c #B9CFBF",
"F c #B6D0BE",
"G c #C0C0BD",
"H c #BCD3C2",
"J c #C2D7C7",
"K c #C5DBCB",
"L c #CADBCD",
"P c #CBDED1",
"I c #D0DED3",
"U c #CFE0D3",
"Y c #D2E1D6",
"T c #D5E5DA",
"R c #DBEADF",
"E c #DDECE2",
"W c #E2EEE6",
"Q c #E6F2EA",
"! c #EBF5EF",
"~ c #ECF6F0",
"^ c #EFF8F2",
"/ c #F0F6F2",
"( c #F2F9F4",
") c #F7FCF9",
"_ c #FDFEFE",
/* pixels */
"MMmmMMMMMMMMMMMMMMMmmMmmMMMMMMMMMMMMMMMMMMMMMMmmMMmMMMMMMMMMMMMM",
"MMMMMMMMMMMMMMMMMmmMMmmMMMMMMMMMMMMMMMMMMMMMMMmMMmmMMMMMMMmMMMMM",
"MMmmMMMMMMMMMMMMMmMmMmmmMMMMGMGMMMMMMMMMMMMMMMMmmmMMMMMMMmmmMMMM",
"MMMMMMMMMMMMMMMMmmMmMMMmAchdiuyuuflcGGMMMMMMMMMMMMMMMMMMMMmmMMMM",
"MMMMMMMMMMMMMMMMMMMMAbhw<*@+ooXoO+$;1ylnMMMMnMMMMMMMMMMMMMMMMMMM",
"MMMMMMMMMMMMMMMMMMmcu<#o.. o.ooo.....o$<ubMMMMMMMMMMMMMMMMMMMMMM",
"MMMMMMMMMMMMMMMMMby:O oooooooooooooo.o..X>ybMMMMMMMMMMMMMMMMMMMM",
"MMMMMMMMMMMMMMMmf>O oooooooooooooooooo.o. +<hnMMMMMMMMMMMMMMMMMM",
"MMMMMMMMMMMMMMb0+oooooooooooooooooooooooooo.$enMMMMMMMMMMMMMMMMM",
"MMMMMMMMMMMMMx1Xooooooooooooooooooooooooooo..O3cMMMMMMMMMMMMMMMM",
"MMMMMMMMMMMmk>X.oooooooooooooooooooooooooooo...>xmMMMMMMMMMMMMMM",
"MMMMMMMMMMMl* .Xoooooooooooooooooooooooo.oooooo.3xMMMMMMMMMMMMMM",
"MMMMMMMMMMx>..ooooooooooooooooooooooooo.oooooooo 3kmMmMMMMMMMMMM",
"MMMMMMMMMb1..oooooooooooooooooooooooooooo.oooooo  3bMMMMMMMMMMMM",
"MMMMMMMMM0X.o..oooooooooooooooooooooooooOOOoooooXXXtmmmMMMMMMMMM",
"MMMMMMMGd@.oooooooooooooooooooooooooooo=BDZ, oooXXXXhmMMMMMMMMMM",
"mMMMmMMb, ooooooooooooooO#%#Ooooooooooo,E_~5 oooX ..3nmMMMMMMmMM",
"MMMMMMmtOooooooooooooooo4HUH,ooooooooo :Q_~8 oooX o.XummMMMMMMMM",
"MMMMMMv*oooooooooooooooor(_Q2ooooooooo ,W_~5 ooooooo ;bmMMMMMMMM",
"MMMMMmtXoooooooooooooooor(_Q2oooooooooo,W_~5 oooooooXXumMMMMMMMM",
"MMMMMb:.ooooooooooooooo r(_Q2  ooooooo :W_~8 oooooooo 3bMMMMMmmM",
"MMMMMfX.ooooooooooooooo r(_Q2 ooooooo. ,W_~8 ooooooooo@gMmMMMMmM",
"MMMMm3XXooooooooooooooo r(_Q2ooXoooooo.,W_~8 ooooooooo.0mmMMMmmM",
"MMmMb*..oooooooooooooo  r(_Q4 oooooo.X ,W_~8 ooooooooo.>nmmMmmmM",
"MMmMh+oooooooooooooooo. s)_~q  ooooooo >W_~8 Xoooooooo @kmMMMmmM",
"MMmMtXoooooooooooooo.ooXz)_(r ooooOOOoo1W_~8 oooooooooo@dmmMMMmM",
"mmmm9XoooooooooooooooooOS__)g oo+sCCCCVH/_~8 ooooooo ooX0mmMMmMM",
"mmmA1 ooooooooooooooooo#P___SO  #U)))__)__~5 oooooooooo 3mmmMmMM",
"mmMb;Xoooooooooooooooo ,W___I&oo#L))))))__~5ooooooooooo <mmMmmMM",
"MMMv&.oooooooooooooooo r(___Q3  OwjjzgjZ/_~qooooooooooo ;bMMmmmM",
"mMHx&.Xooooooooooooooo@H__)_)NXXoo....X,E_~5 ooooooo.oX *bMMmmMM",
"mMml$.X oooooooooooooo2E_/I(_T: ooo.ooX:W)~5 ooooooo..  *bMMmmMM",
"MMMc$.oooooooooooooooOZ)_L4Y_(jooooooo ,W_~9 ooooooooooo;vMMMmMM",
"MMGc*.ooooooooooooo. 8W_!a.d(_R2Xo.ooo ,W_~9 oooooooooo ;bMMMMMM",
"MMMb; o.ooooooooo.o *K_(G= &K_)J&.oooo ,W_!4 oooooooooo <nmmMMMM",
"MMMn< o.oooooooooo.#S(_R2oo 8W_^S& ooo ,W_~q oooooooooo 3mmmMMMM",
"MMMn6.ooooooooooo #V^_!sooooog!_(D:o.o ,W_~4 ooooooooooX9mmMMMMM",
"MMMMyo.ooooo.oo..:S/_(B+ooooo+C^_)Uw+o ,W_~9 ooooooooo XimmMMMMM",
"MMMMhOooooooooo+qU)_(Z+ooooooo=C(__Eq .,W_~4 oooooooooo@kGmMMMMM",
"MMMMc*ooooooooo-L)_/Z%ooooooooo=jW)P=. ,W_~4 oooooooooo:bMMMMMMM",
"MMMMn3.ooooooooopWWj# oooooooooo+9FqX  ,W_!9  oooooo..X7AMMMMMMM",
"nMMMMuO oooooooo+a8oooooooooooooo.+O.o :W_!9 ooXoooooX@fMMMMMMMM",
"MMMMMc*.oooooooooooooooooooooooooooooo ,W_!4 ooXooooo >bMmMMMMMM",
"MMMMMG0.oooooooooooooooooooooooooooooo ,W_!9 ooooooooXyMMMmMMMMM",
"MMMMMMl$.ooooooooooooooooooooooooooooo ,W_~4Xooooooo.*xMmmmMMMMM",
"MMMMMMG0.ooooooooooooooooooooooooooooo ,W_!5 oo ooooXtMMMMMMMMMM",
"MMMMMMGc: oooooooooooooooooooooooooooo.,E)Q4 ooo.oo.>bmMMMMMMMMM",
"MMMMMMMGu+oooooooooooooooooooooooooooo.#sgs=ooooo..@imMMMMMMMMMM",
"MMMMMMMMb3X.oooooooooooooOooooooooooooooo..oooooo..0nMMMMMMMMMMM",
"MMMMMMMMMc>..oooooooooooooooooooooooooooo.oooo.o..<bMMMMMMMMMMMM",
"MMMMMMMMMMh&.ooooooooooooooooooooooooooooooooooo.:xMMMMMMMMMMMMM",
"MMMMMMMMMMGh$.ooooooooooooooooooooooooooooooo.o.*hmmMMMMMMMMMMMM",
"MMMMMMMMMMMMh*..oooooooooooooooooooooooooooo...;hGMMMMMMMMMMMMMM",
"MMMMMMMMMMMMMh:...oooooooooooooooooooooooooo.X<lGMMMMMMMMMnMMMMM",
"MMMMMMMMMMMMMMc3+..oooooooooooooooooooooo.o.+9cGMMMMMMMMMMMMMMMM",
"MMMMMMMMMMMMMMMnu*..ooo.oooooooooooooooo..X;unGMMMMMMMMMMMMMMMMM",
"MMMMMMMMMMMMMMMMmx9&..ooooooooo.ooooo...o&0cGMMMMMMMMMMMMMMMMMMM",
"MMMMMMMMMMMMMMMMMMAk0*O.....ooo.oooo..+;0lMGMMMMMMMMMMMMMMMMMMMM",
"MMMMMMMMMMMMMMMMMMMGGbi6:$+XX...Oo@$:9dcmMMMMMMMMMMMMMMMMMMMMMMM",
"MMMMMMMMMMMMMMMMmmmMMGGAbldy0988eydlnGMMMMMMMMMMMMMMMMMMMMMMMMMM",
"MMMMMMMMMMMMMMMMMMMmMMMMMMMMAmAAGMMMMMMMMMMMMMMMMMMMMMMMMMMMMMMM",
"MMMMMMMMMMMMMMMMMMMMMMMMMMMMMMMMMMMMMMMMMMMMMMMMMMMMMMMMMMMMMMMM",
"MMMMMMMMMMMMMMMMMMMMMMMMMMMMMMMMMMMMMMMMMMMMMMMMMMMMMMMMMMMMMMMM",
"MMMMMMMMMMMMMMMMMMMMMMMMMMMMMMMMMMMMMMMMMMMMMMMMMMMMnMMMMMMMMMMM"
};
